<svg fill="none" height="390" viewBox="0 0 624 390" width="624" xmlns="http://www.w3.org/2000/svg" xmlns:xlink="http://www.w3.org/1999/xlink"><linearGradient id="a" gradientUnits="userSpaceOnUse" x1="516.312" x2="-3.75071" y1="228.987" y2="274.615"><stop offset="0" stop-color="#0094d5"/><stop offset=".43" stop-color="#ffc224"/><stop offset="1" stop-color="#c0462e"/></linearGradient><path d="m12.3422 383.579c0 2.533-2.104 4.337-5.00241 4.337-3.521 0-5.02386-2.34-5.41031-4.38l1.73902-.322c.32205 1.632 1.13789 3.22 3.67129 3.22 1.84637 0 3.22041-1.094 3.22041-2.726 0-1.696-.8373-2.491-3.43511-3.199-2.91985-.773-4.61594-1.804-4.61594-4.38 0-2.254 1.88932-3.95 4.65888-3.95 2.64075 0 4.44417 1.438 4.91647 3.671l-1.696.365c-.365-1.675-1.58879-2.555-3.22047-2.555-1.93225 0-2.96279.966-2.96279 2.34 0 1.439.57968 2.169 3.37071 2.899 3.07015.794 4.76625 1.932 4.76625 4.68zm3.1092 4.144v-16.51h1.782v16.51zm4.6788-5.153v-.902c0-3.199 2.1685-5.367 5.1527-5.367 2.9628 0 5.1312 2.147 5.1312 5.346v.902c0 3.22-2.1684 5.367-5.1527 5.367-3.0057 0-5.1312-2.233-5.1312-5.346zm1.8035 0c0 2.362 1.2452 3.886 3.3492 3.886 2.0611 0 3.3278-1.546 3.3278-3.886v-.88c0-2.405-1.2882-3.929-3.3278-3.929-2.0825 0-3.3492 1.524-3.3492 3.907zm13.2324 5.153-3.2204-11.229h1.8463l2.4046 9.017 2.5334-9.017h1.5029l2.3616 9.017 2.4476-9.017h1.739l-3.2634 11.229h-1.9108l-2.1469-8.459-2.4475 8.459zm22.6538-2.813c-.4723 1.46-1.8463 3.006-4.4442 3.006-2.9627 0-5.0668-2.061-5.0668-5.346v-.902c0-3.199 2.0182-5.367 4.9166-5.367 2.4904 0 4.7233 1.503 4.7233 5.238v.924h-7.8364v.107c0 2.576 1.1808 3.886 3.3063 3.886 1.782 0 2.6407-1.095 2.9413-2.018zm-4.5944-7.149c-1.5673 0-2.8769 1.009-3.0916 3.285h6.0329v-.108c-.0859-2.275-1.2238-3.177-2.9413-3.177zm7.5331 9.962v-11.229h1.739v1.932c.687-1.266 1.5673-2.104 3.9289-2.104v1.654c-2.5763.042-3.9289.729-3.9289 3.327v6.42zm21.1065-3.135c0 1.954-1.5243 3.328-4.1651 3.328-2.5978 0-4.2724-1.417-4.6589-3.199l1.7176-.387c.2362 1.16 1.1379 2.126 2.9198 2.126 1.6103 0 2.4905-.601 2.4905-1.739 0-1.074-.9017-1.567-2.7266-1.975-2.8555-.687-3.9075-1.546-3.9075-3.328 0-1.997 2.0182-3.113 3.9075-3.113 2.0396 0 3.8001.987 4.208 2.834l-1.6532.386c-.2361-1.03-1.1378-1.76-2.5548-1.76-1.3955 0-2.2758.644-2.2758 1.567 0 .902.6441 1.374 2.7266 1.846 2.3187.516 3.9719 1.267 3.9719 3.414zm3.6129-10.327c-.6441 0-1.1593-.515-1.1593-1.159s.5367-1.159 1.1593-1.159c.6441 0 1.1594.515 1.1594 1.159s-.5153 1.159-1.1594 1.159zm-.8588 13.462v-11.229h1.7391v11.229zm5.7319-14.278h1.7605v3.049h2.8984v1.482h-2.8984v6.848c0 1.117.5152 1.546 1.4814 1.546.5796 0 1.1379-.107 1.5458-.3v1.459c-.4079.194-.9232.322-1.6961.322-2.147 0-3.0916-1.116-3.0916-2.876v-6.999h-1.5244v-1.482h1.5244zm16.3409 11.465c-.472 1.46-1.846 3.006-4.444 3.006-2.9626 0-5.0666-2.061-5.0666-5.346v-.902c0-3.199 2.0181-5.367 4.9166-5.367 2.49 0 4.723 1.503 4.723 5.238v.924h-7.8362v.107c0 2.576 1.1812 3.886 3.3062 3.886 1.782 0 2.641-1.095 2.941-2.018zm-4.594-7.149c-1.567 0-2.877 1.009-3.0917 3.285h6.0327v-.108c-.086-2.275-1.224-3.177-2.941-3.177zm15.41 6.827c0 1.954-1.525 3.328-4.165 3.328-2.598 0-4.273-1.417-4.659-3.199l1.717-.387c.237 1.16 1.138 2.126 2.92 2.126 1.61 0 2.491-.601 2.491-1.739 0-1.074-.902-1.567-2.727-1.975-2.855-.687-3.907-1.546-3.907-3.328 0-1.997 2.018-3.113 3.907-3.113 2.04 0 3.8.987 4.208 2.834l-1.653.386c-.236-1.03-1.138-1.76-2.555-1.76-1.395 0-2.276.644-2.276 1.567 0 .902.644 1.374 2.727 1.846 2.319.516 3.972 1.267 3.972 3.414z" fill="#fff"/><path d="m468.619 387.723v-15.351h8.652v1.481h-6.827v5.454h5.41v1.502h-5.41v6.914zm16.891-1.353c-.773.988-1.697 1.546-3.264 1.546-1.996 0-3.542-1.052-3.542-3.263v-.086c0-2.534 2.469-3.414 5.217-3.414h1.589v-.945c0-1.696-.58-2.426-2.233-2.426-1.482 0-2.34.966-2.555 1.933l-1.675-.387c.387-1.782 2.061-3.027 4.294-3.027 2.169 0 3.929.923 3.929 3.907v7.515h-1.76zm-3.049.15c1.76 0 3.049-.901 3.049-2.555v-1.545h-1.525c-2.082 0-3.542.558-3.542 2.147v.064c0 1.181.558 1.889 2.018 1.889zm16.047-1.932c0 1.954-1.524 3.328-4.165 3.328-2.597 0-4.272-1.417-4.658-3.199l1.717-.387c.236 1.16 1.138 2.126 2.92 2.126 1.61 0 2.49-.601 2.49-1.739 0-1.074-.901-1.567-2.726-1.975-2.856-.687-3.908-1.546-3.908-3.328 0-1.997 2.018-3.113 3.908-3.113 2.039 0 3.8.987 4.208 2.834l-1.653.386c-.237-1.03-1.138-1.76-2.555-1.76-1.396 0-2.276.644-2.276 1.567 0 .902.644 1.374 2.727 1.846 2.318.516 3.971 1.267 3.971 3.414zm3.098-11.143h1.761v3.049h2.898v1.482h-2.898v6.848c0 1.117.515 1.546 1.481 1.546.58 0 1.138-.107 1.546-.3v1.459c-.408.194-.923.322-1.696.322-2.147 0-3.092-1.116-3.092-2.876v-6.999h-1.524v-1.482h1.524zm16.341 11.465c-.472 1.46-1.846 3.006-4.444 3.006-2.963 0-5.067-2.061-5.067-5.346v-.902c0-3.199 2.019-5.367 4.917-5.367 2.49 0 4.723 1.503 4.723 5.238v.924h-7.836v.107c0 2.576 1.181 3.886 3.306 3.886 1.782 0 2.641-1.095 2.942-2.018zm-4.594-7.149c-1.567 0-2.877 1.009-3.092 3.285h6.033v-.108c-.086-2.275-1.223-3.177-2.941-3.177zm15.41 6.827c0 1.954-1.524 3.328-4.165 3.328-2.598 0-4.273-1.417-4.659-3.199l1.717-.387c.237 1.16 1.138 2.126 2.92 2.126 1.611 0 2.491-.601 2.491-1.739 0-1.074-.902-1.567-2.727-1.975-2.855-.687-3.907-1.546-3.907-3.328 0-1.997 2.018-3.113 3.907-3.113 2.04 0 3.8.987 4.208 2.834l-1.653.386c-.236-1.03-1.138-1.76-2.555-1.76-1.395 0-2.276.644-2.276 1.567 0 .902.644 1.374 2.727 1.846 2.319.516 3.972 1.267 3.972 3.414zm3.098-11.143h1.76v3.049h2.898v1.482h-2.898v6.848c0 1.117.515 1.546 1.481 1.546.58 0 1.138-.107 1.546-.3v1.459c-.408.194-.923.322-1.696.322-2.147 0-3.091-1.116-3.091-2.876v-6.999h-1.525v-1.482h1.525zm20.699 11.143c0 1.954-1.525 3.328-4.165 3.328-2.598 0-4.273-1.417-4.659-3.199l1.717-.387c.236 1.16 1.138 2.126 2.92 2.126 1.61 0 2.491-.601 2.491-1.739 0-1.074-.902-1.567-2.727-1.975-2.856-.687-3.908-1.546-3.908-3.328 0-1.997 2.019-3.113 3.908-3.113 2.04 0 3.8.987 4.208 2.834l-1.653.386c-.236-1.03-1.138-1.76-2.555-1.76-1.396 0-2.276.644-2.276 1.567 0 .902.644 1.374 2.727 1.846 2.318.516 3.972 1.267 3.972 3.414zm3.613-10.327c-.645 0-1.16-.515-1.16-1.159s.537-1.159 1.16-1.159c.644 0 1.159.515 1.159 1.159s-.515 1.159-1.159 1.159zm-.859 13.462v-11.229h1.739v11.229zm5.732-14.278h1.76v3.049h2.898v1.482h-2.898v6.848c0 1.117.515 1.546 1.481 1.546.58 0 1.138-.107 1.546-.3v1.459c-.408.194-.923.322-1.696.322-2.147 0-3.091-1.116-3.091-2.876v-6.999h-1.525v-1.482h1.525zm16.341 11.465c-.472 1.46-1.846 3.006-4.444 3.006-2.963 0-5.067-2.061-5.067-5.346v-.902c0-3.199 2.018-5.367 4.916-5.367 2.491 0 4.724 1.503 4.724 5.238v.924h-7.837v.107c0 2.576 1.181 3.886 3.307 3.886 1.782 0 2.64-1.095 2.941-2.018zm-4.595-7.149c-1.567 0-2.876 1.009-3.091 3.285h6.033v-.108c-.086-2.275-1.224-3.177-2.942-3.177zm15.41 6.827c0 1.954-1.524 3.328-4.165 3.328-2.598 0-4.272-1.417-4.659-3.199l1.718-.387c.236 1.16 1.138 2.126 2.92 2.126 1.61 0 2.49-.601 2.49-1.739 0-1.074-.901-1.567-2.726-1.975-2.856-.687-3.908-1.546-3.908-3.328 0-1.997 2.018-3.113 3.908-3.113 2.039 0 3.8.987 4.208 2.834l-1.654.386c-.236-1.03-1.137-1.76-2.554-1.76-1.396 0-2.276.644-2.276 1.567 0 .902.644 1.374 2.726 1.846 2.319.516 3.972 1.267 3.972 3.414z" fill="#fff"/><path d="m17.0271 253.862c2.4475.515 4.7877 2.383 4.7877 5.582 0 3.757-2.6837 6.097-7.0849 6.097h-1.5673c-4.2939 0-7.08493-2.597-7.08493-6.161 0-3.049 1.84638-4.938 4.46563-5.389l.3435 1.76c-1.99663.322-3.3492 1.525-3.3492 3.607 0 2.619 2.0396 4.294 5.625 4.294h1.5458c3.5854 0 5.5821-1.589 5.5821-4.251 0-2.297-1.6532-3.564-3.6284-3.95zm-.5582-2.048h-.9017c-3.199 0-5.3674-2.169-5.3674-5.153 0-2.963 2.147-5.131 5.3459-5.131h.9017c3.2205 0 5.3674 2.168 5.3674 5.152 0 3.006-2.2328 5.132-5.3459 5.132zm0-1.804c2.3616 0 3.886-1.245 3.886-3.349 0-2.061-1.5458-3.328-3.886-3.328h-.8802c-2.4046 0-3.929 1.288-3.929 3.328 0 2.082 1.5244 3.349 3.9075 3.349zm5.1527-11.338h-11.2286v-1.739h1.6961c-1.009-.494-1.8893-1.653-1.8893-3.392 0-2.169 1.2238-3.693 4.2939-3.693h7.1279v1.761h-7.2352c-1.8464 0-2.6623.772-2.6623 2.426 0 1.545.9876 2.898 2.8555 2.898h7.042zm0-14.717-11.2286 3.821v-1.846l9.4251-3.092-9.4251-3.005v-1.782l11.2286 3.757zm-2.8125-16.876c1.4599.472 3.0057 1.847 3.0057 4.444 0 2.963-2.0611 5.067-5.3459 5.067h-.9017c-3.199 0-5.3674-2.018-5.3674-4.916 0-2.491 1.5029-4.724 5.2386-4.724h.9232v7.837h.1073c2.5763 0 3.886-1.181 3.886-3.307 0-1.782-1.095-2.64-2.0181-2.941zm-7.1494 4.595c0 1.567 1.0091 2.877 3.2849 3.091v-6.033h-.1074c-2.2757.086-3.1775 1.224-3.1775 2.942zm9.9619-7.533h-11.2286v-1.74h1.9323c-1.2667-.687-2.104-1.567-2.104-3.928h1.6531c.043 2.576.73 3.928 3.3278 3.928h6.4194zm-3.1346-15.614c1.9538 0 3.3278 1.524 3.3278 4.165 0 2.598-1.417 4.273-3.1989 4.659l-.3865-1.717c1.1594-.237 2.1255-1.138 2.1255-2.92 0-1.61-.6012-2.491-1.739-2.491-1.0735 0-1.5673.902-1.9752 2.727-.6871 2.855-1.5458 3.907-3.3278 3.907-1.9967 0-3.1131-2.018-3.1131-3.907 0-2.04.9876-3.8 2.834-4.208l.3864 1.653c-1.0305.236-1.7605 1.138-1.7605 2.555 0 1.395.6441 2.276 1.5673 2.276.9017 0 1.3741-.644 1.8464-2.727.5153-2.319 1.2667-3.972 3.4136-3.972zm-10.32679-3.613c0 .644-.51527 1.16-1.15935 1.16-.64409 0-1.15935-.537-1.15935-1.16 0-.644.51526-1.159 1.15935-1.159.64408 0 1.15935.515 1.15935 1.159zm13.46139.859h-11.2286v-1.739h11.2286zm-5.1527-4.637h-.9017c-3.199 0-5.3674-2.168-5.3674-5.153 0-2.962 2.147-5.131 5.3459-5.131h.9017c3.2205 0 5.3674 2.169 5.3674 5.153 0 3.006-2.2328 5.131-5.3459 5.131zm0-1.803c2.3616 0 3.886-1.246 3.886-3.35 0-2.061-1.5458-3.327-3.886-3.327h-.8802c-2.4046 0-3.929 1.288-3.929 3.327 0 2.083 1.5244 3.35 3.9075 3.35zm5.1527-11.338h-11.2286v-1.739h1.6961c-1.009-.494-1.8893-1.654-1.8893-3.393 0-2.168 1.2238-3.692 4.2939-3.692h7.1279v1.76h-7.2352c-1.8464 0-2.6623.773-2.6623 2.426 0 1.546.9876 2.899 2.8555 2.899h7.042z" fill="#fff"/><path d="m590.569 350.299h-589.589293" stroke="#fff" stroke-width=".759429"/><path d="m590.348 65.8528-60.629 109.7172-116.035 68.421-273.698 47.229-78.3007 22.78-59.33667 16.452" stroke="url(#a)" stroke-width="5.36737"/><circle cx="590.671" cy="33.3157" fill="#f0fbcc" r="33.1805"/><g fill="#171e16"><path clip-rule="evenodd" d="m577.474 17.1677c-.978 0-1.771.793-1.771 1.7713 0 .9782.793 1.7712 1.771 1.7712h3.807c.299 0 .551.2236.586.5206l2.456 20.6323c.248 2.0789 2.011 3.6444 4.104 3.6444h12.663c.979 0 1.772-.7931 1.772-1.7713s-.793-1.7712-1.772-1.7712h-12.663c-.299 0-.551-.2236-.586-.5206l-.219-1.8411h12.637c3.393 0 6.215-2.6127 6.475-5.9964l.846-10.9896c.037-.4919-.132-.9773-.467-1.3393s-.806-.5678-1.299-.5678h-20.443c-.292-2.0279-2.031-3.5425-4.09-3.5425zm22.785 18.8932h-13.059l-1.406-11.8082h18.107l-.699 9.0825c-.118 1.538-1.401 2.7257-2.943 2.7257z" fill-rule="evenodd"/><path d="m573.931 25.4335c-.978 0-1.771.793-1.771 1.7712s.793 1.7712 1.771 1.7712h1.181c.978 0 1.771-.793 1.771-1.7712s-.793-1.7712-1.771-1.7712z"/><path d="m573.931 32.5184c-.978 0-1.771.793-1.771 1.7712 0 .9783.793 1.7713 1.771 1.7713h3.543c.978 0 1.771-.793 1.771-1.7713 0-.9782-.793-1.7712-1.771-1.7712z"/><path d="m572.16 41.3746c0-.9782.793-1.7713 1.771-1.7713h5.904c.979 0 1.772.7931 1.772 1.7713s-.793 1.7712-1.772 1.7712h-5.904c-.978 0-1.771-.793-1.771-1.7712z"/><path d="m591.053 50.2307c0 1.3043-1.057 2.3617-2.361 2.3617-1.305 0-2.362-1.0574-2.362-2.3617s1.057-2.3616 2.362-2.3616c1.304 0 2.361 1.0573 2.361 2.3616z"/><path d="m602.862 50.2307c0 1.3043-1.058 2.3617-2.362 2.3617s-2.362-1.0574-2.362-2.3617 1.058-2.3616 2.362-2.3616 2.362 1.0573 2.362 2.3616z"/></g></svg>