<?xml version="1.0" ?><svg id="Layer_1" style="enable-background:new 0 0 80 80;" height="100" width="100" version="1.1" viewBox="0 0 80 80" xml:space="preserve" xmlns="http://www.w3.org/2000/svg" xmlns:xlink="http://www.w3.org/1999/xlink"><title/><g id="Layer_2"><g id="Layer_3"><path d="M40,5.4C20.9,5.4,5.4,20.9,5.4,40c0,19.1,15.5,34.6,34.5,34.6S74.5,59.1,74.6,40c0,0,0,0,0,0C74.5,20.9,59.1,5.5,40,5.4z     M40,71.6C22.6,71.6,8.4,57.4,8.4,40C8.4,22.6,22.6,8.4,40,8.4c17.4,0,31.6,14.1,31.6,31.5c0,0,0,0,0,0    C71.5,57.4,57.4,71.5,40,71.6z"/><path d="M50.7,33.4c2.8,0,5.1-2.3,5.1-5.2s-2.3-5.1-5.2-5.1c-2.8,0-5.1,2.3-5.1,5.2S47.8,33.4,50.7,33.4L50.7,33.4z M50.7,26.2    c1.2,0,2.1,1,2.1,2.2s-1,2.1-2.2,2.1c-1.2,0-2.1-1-2.1-2.2C48.5,27.1,49.5,26.2,50.7,26.2L50.7,26.2z"/><path d="M29.8,33.4c2.8,0,5.2-2.3,5.2-5.1s-2.3-5.1-5.1-5.2c-2.8,0-5.2,2.3-5.2,5.1c0,0,0,0,0,0C24.6,31.1,26.9,33.4,29.8,33.4z     M29.8,26.2c1.2,0,2.2,1,2.2,2.1s-1,2.2-2.2,2.2s-2.1-1-2.1-2.2l0,0C27.6,27.1,28.6,26.2,29.8,26.2L29.8,26.2z"/><path d="M40,56.5c-7.6,0-12.3-5.1-14.6-7.6l-2.2,2c2.4,2.6,8,8.5,16.8,8.5c8,0,13.6-5.5,16.3-8.1l-2.1-2.1    C51.6,51.8,46.8,56.5,40,56.5z"/></g></g></svg>