<?xml version="1.0" encoding="utf-8"?>
<!-- Generator: Adobe Illustrator 24.1.1, SVG Export Plug-In . SVG Version: 6.00 Build 0)  -->
<svg version="1.1" id="Layer_1" xmlns="http://www.w3.org/2000/svg" xmlns:xlink="http://www.w3.org/1999/xlink" x="0px" y="0px"
	 viewBox="0 0 85.43 41.86" style="enable-background:new 0 0 85.43 41.86;" xml:space="preserve">
<style type="text/css">
	.st0{fill:#1F9EC0;}
	.st1{fill:#FFFFFF;}
</style>
<g>
	<g>
		<g>
			<g>
				<path class="st0" d="M23.95,22.88c0,3.72-2.54,6.74-6.74,6.74s-6.71-3.02-6.71-6.74c0-3.7,2.57-6.74,6.69-6.74
					S23.95,19.19,23.95,22.88z M13.7,22.88c0,1.97,1.18,3.8,3.51,3.8s3.51-1.84,3.51-3.8c0-1.94-1.36-3.83-3.51-3.83
					C14.9,19.06,13.7,20.94,13.7,22.88z"/>
				<path class="st0" d="M36.31,15.1l2.36,1.78l-1.44,1.84c1,1.13,1.36,2.41,1.36,3.83c0,1.6-0.6,3.86-2.73,4.83
					c2.15,1.08,2.68,2.62,2.68,4.28c0,3.57-2.73,5.77-6.48,5.77s-6.56-2.28-6.56-5.77h3.17c0,1.68,1.55,2.78,3.38,2.78
					s3.28-1,3.28-2.78c0-1.78-1.68-2.6-3.28-2.6c-4.04,0-6.56-2.47-6.56-6.5c0-4.04,2.94-6.56,6.56-6.56c1.02,0,2.07,0.13,2.96,0.73
					L36.31,15.1z M28.67,22.54c0,2.26,1.52,3.59,3.38,3.59c1.84,0,3.36-1.36,3.36-3.59c0-2.23-1.52-3.65-3.36-3.65
					C30.19,18.9,28.67,20.29,28.67,22.54z"/>
				<path class="st0" d="M53.48,22.88c0,3.72-2.54,6.74-6.74,6.74s-6.71-3.02-6.71-6.74c0-3.7,2.57-6.74,6.69-6.74
					S53.48,19.19,53.48,22.88z M43.23,22.88c0,1.97,1.18,3.8,3.51,3.8s3.51-1.84,3.51-3.8c0-1.94-1.36-3.83-3.51-3.83
					C44.44,19.06,43.23,20.94,43.23,22.88z"/>
				<path class="st0" d="M68.54,22.88c0,3.72-2.54,6.74-6.74,6.74s-6.71-3.02-6.71-6.74c0-3.7,2.57-6.74,6.69-6.74
					C65.89,16.14,68.54,19.19,68.54,22.88z M58.28,22.88c0,1.97,1.18,3.8,3.51,3.8c2.33,0,3.51-1.84,3.51-3.8
					c0-1.94-1.36-3.83-3.51-3.83C59.49,19.06,58.28,20.94,58.28,22.88z"/>
				<path class="st0" d="M79.18,19.84c-0.92-0.87-1.97-1.15-3.2-1.15c-1.52,0-2.36,0.47-2.36,1.29c0,0.84,0.76,1.31,2.41,1.42
					c2.44,0.16,5.53,0.71,5.53,4.14c0,2.28-1.86,4.25-5.56,4.25c-2.05,0-4.09-0.34-5.98-2.31l1.57-2.28
					c0.92,1.02,3.02,1.78,4.46,1.81c1.21,0.03,2.33-0.6,2.33-1.55c0-0.89-0.73-1.26-2.57-1.36c-2.44-0.18-5.35-1.08-5.35-4.01
					c0-2.99,3.09-4.04,5.46-4.04c2.02,0,3.54,0.39,5.04,1.7L79.18,19.84z"/>
			</g>
			<g>
				<path class="st1" d="M23.95,22.88c0,3.72-2.54,6.74-6.74,6.74s-6.71-3.02-6.71-6.74c0-3.7,2.57-6.74,6.69-6.74
					S23.95,19.19,23.95,22.88z M13.7,22.88c0,1.97,1.18,3.8,3.51,3.8s3.51-1.84,3.51-3.8c0-1.94-1.36-3.83-3.51-3.83
					C14.9,19.06,13.7,20.94,13.7,22.88z"/>
				<path class="st1" d="M36.31,15.1l2.36,1.78l-1.44,1.84c1,1.13,1.36,2.41,1.36,3.83c0,1.6-0.6,3.86-2.73,4.83
					c2.15,1.08,2.68,2.62,2.68,4.28c0,3.57-2.73,5.77-6.48,5.77s-6.56-2.28-6.56-5.77h3.17c0,1.68,1.55,2.78,3.38,2.78
					s3.28-1,3.28-2.78c0-1.78-1.68-2.6-3.28-2.6c-4.04,0-6.56-2.47-6.56-6.5c0-4.04,2.94-6.56,6.56-6.56c1.02,0,2.07,0.13,2.96,0.73
					L36.31,15.1z M28.67,22.54c0,2.26,1.52,3.59,3.38,3.59c1.84,0,3.36-1.36,3.36-3.59c0-2.23-1.52-3.65-3.36-3.65
					C30.19,18.9,28.67,20.29,28.67,22.54z"/>
				<path class="st1" d="M53.48,22.88c0,3.72-2.54,6.74-6.74,6.74s-6.71-3.02-6.71-6.74c0-3.7,2.57-6.74,6.69-6.74
					S53.48,19.19,53.48,22.88z M43.23,22.88c0,1.97,1.18,3.8,3.51,3.8s3.51-1.84,3.51-3.8c0-1.94-1.36-3.83-3.51-3.83
					C44.44,19.06,43.23,20.94,43.23,22.88z"/>
				<path class="st1" d="M68.54,22.88c0,3.72-2.54,6.74-6.74,6.74s-6.71-3.02-6.71-6.74c0-3.7,2.57-6.74,6.69-6.74
					C65.89,16.14,68.54,19.19,68.54,22.88z M58.28,22.88c0,1.97,1.18,3.8,3.51,3.8c2.33,0,3.51-1.84,3.51-3.8
					c0-1.94-1.36-3.83-3.51-3.83C59.49,19.06,58.28,20.94,58.28,22.88z"/>
				<path class="st1" d="M79.18,19.84c-0.92-0.87-1.97-1.15-3.2-1.15c-1.52,0-2.36,0.47-2.36,1.29c0,0.84,0.76,1.31,2.41,1.42
					c2.44,0.16,5.53,0.71,5.53,4.14c0,2.28-1.86,4.25-5.56,4.25c-2.05,0-4.09-0.34-5.98-2.31l1.57-2.28
					c0.92,1.02,3.02,1.78,4.46,1.81c1.21,0.03,2.33-0.6,2.33-1.55c0-0.89-0.73-1.26-2.57-1.36c-2.44-0.18-5.35-1.08-5.35-4.01
					c0-2.99,3.09-4.04,5.46-4.04c2.02,0,3.54,0.39,5.04,1.7L79.18,19.84z"/>
			</g>
		</g>
		<g>
			<g>
				<path class="st1" d="M8.15,8.28c0,0.21,0,0.41,0,0.62c0,0.23-0.15,0.89-0.26,1.13c-0.15,0.31-0.25,0.65-0.48,0.92
					c-0.14,0.17-0.26,0.36-0.4,0.53c-0.08,0.11-0.2,0.04-0.3,0.06c-0.01-0.07-0.05-0.17-0.02-0.22c0.08-0.14,0.18-0.27,0.29-0.37
					c0.4-0.39,0.55-0.93,0.75-1.42C7.8,9.3,7.8,9.05,7.81,8.82c0.01-0.4-0.01-0.8,0.01-1.19C7.83,7.41,7.7,7.26,7.57,7.18
					C7.4,7.06,7.22,6.92,6.93,7.06C6.61,7.22,6.47,7.41,6.5,7.76c0.01,0.21,0.02,0.41,0,0.62C6.45,8.73,6.44,9.1,6.26,9.43
					C6.23,9.48,6.25,9.58,6.15,9.55C6.1,9.53,6.02,9.47,6.01,9.42c-0.02-0.09-0.04-0.21,0-0.28c0.09-0.15,0.03-0.32,0.08-0.46
					c0.12-0.3,0.09-0.62,0.06-0.92C6.11,7.3,6.38,7.03,6.69,6.79C6.8,6.7,6.99,6.66,7.17,6.66C7.34,6.67,7.51,6.72,7.65,6.8
					c0.16,0.1,0.3,0.25,0.4,0.4C8.1,7.29,8.17,7.4,8.15,7.54C8.13,7.78,8.15,8.03,8.15,8.28z"/>
				<path class="st1" d="M8.89,8.31c0,0.29,0,0.58,0,0.86c0,0.24-0.11,0.45-0.18,0.67C8.7,9.9,8.56,9.97,8.53,9.96
					c-0.07-0.05-0.17-0.09-0.1-0.25C8.52,9.5,8.55,9.25,8.55,9.02c0.02-0.48,0-0.96,0.01-1.44c0-0.18-0.02-0.33-0.11-0.49
					C8.11,6.55,7.67,6.2,6.99,6.26C6.55,6.29,5.82,6.82,5.77,7.22C5.73,7.5,5.62,7.79,5.67,8.09c0.01,0.06,0.03,0.15-0.08,0.15
					c-0.06,0-0.14-0.02-0.18-0.06C5.37,8.14,5.36,8.06,5.35,8C5.31,7.72,5.41,7.45,5.46,7.18C5.5,6.99,5.62,6.8,5.75,6.65
					c0.18-0.23,0.41-0.42,0.67-0.55c0.6-0.31,1.38-0.2,1.86,0.25C8.44,6.5,8.6,6.66,8.72,6.86c0.09,0.16,0.17,0.32,0.17,0.5
					C8.89,7.68,8.89,8,8.89,8.31z"/>
				<path class="st1" d="M7.08,4.78C6.62,4.7,6.17,4.88,5.74,5.11C5.39,5.3,5.06,5.52,4.83,5.89C4.7,6.09,4.55,6.29,4.43,6.51
					C4.4,6.57,4.34,6.63,4.28,6.67C4.2,6.71,4.11,6.65,4.11,6.57c0-0.09,0.02-0.17,0.06-0.26c0.13-0.27,0.29-0.52,0.5-0.74
					c0.36-0.38,0.74-0.71,1.23-0.9C6.08,4.6,6.64,4.44,6.8,4.44c0.22,0,0.44,0,0.66,0c0.53,0,1,0.21,1.45,0.47
					C9.09,5.03,9.25,5.2,9.42,5.35c0.06,0.05,0.07,0.12,0,0.17C9.37,5.55,9.3,5.6,9.25,5.58C9.16,5.55,9.07,5.49,9,5.41
					C8.66,5.07,8.21,4.94,7.78,4.79C7.58,4.72,7.34,4.78,7.08,4.78z"/>
				<path class="st1" d="M7.1,5.18C7.87,5.17,8.43,5.42,8.91,5.9c0.26,0.26,0.46,0.54,0.61,0.86c0.08,0.17,0.01,0.29-0.16,0.32
					c-0.07,0.01-0.11,0-0.14-0.09C9.05,6.45,8.73,6.12,8.27,5.83C7.8,5.53,7.3,5.45,6.79,5.53C6.47,5.58,6.13,5.65,5.88,5.92
					C5.85,5.96,5.79,6.01,5.76,6c-0.07-0.01-0.1,0.15-0.19,0.03C5.5,5.94,5.47,5.85,5.54,5.78c0.18-0.19,0.4-0.34,0.64-0.43
					C6.51,5.23,6.83,5.13,7.1,5.18z"/>
				<path class="st1" d="M7.32,8.43c0.06,0.59-0.15,1.17-0.42,1.72c-0.21,0.44-0.57,0.77-0.92,1.1c-0.07,0.07-0.2,0.03-0.28-0.06
					C5.63,11.11,5.7,11.06,5.75,11c0.13-0.13,0.25-0.26,0.38-0.38c0.35-0.33,0.56-0.74,0.7-1.19C6.94,9.07,7.02,8.72,7,8.34
					C6.98,8.14,6.98,7.93,7,7.73c0.01-0.06,0.11-0.14,0.16-0.14c0.05,0,0.12,0.09,0.16,0.15c0.02,0.04,0,0.11,0,0.16
					C7.32,8.06,7.32,8.23,7.32,8.43z"/>
				<path class="st1" d="M9.73,8.31C9.69,8.68,9.71,9.06,9.62,9.42c-0.12,0.5-0.21,1.02-0.47,1.49c-0.08,0.15-0.15,0.14-0.23,0.1
					c-0.07-0.03-0.14-0.09-0.09-0.22c0.11-0.29,0.24-0.56,0.32-0.86C9.21,9.72,9.24,9.5,9.29,9.29c0.06-0.27,0.07-0.55,0.09-0.83
					c0.01-0.27,0-0.55,0-0.82c0-0.06-0.03-0.15,0.08-0.15c0.07,0,0.12,0,0.18,0.1c0.1,0.17,0.05,0.34,0.07,0.51
					c0.01,0.07,0,0.14,0,0.21C9.72,8.31,9.72,8.31,9.73,8.31z"/>
				<path class="st1" d="M5.35,6.46C5.33,6.48,5.3,6.5,5.29,6.52c-0.04,0.07-0.08,0.13-0.11,0.2C5.04,7.06,4.93,7.4,4.93,7.77
					c0,0.29-0.01,0.58,0,0.86C4.94,8.83,4.88,9,4.74,9.13c-0.11,0.1-0.16,0.25-0.31,0.32C4.32,9.5,4.28,9.43,4.23,9.38
					C4.16,9.32,4.19,9.27,4.24,9.21C4.3,9.16,4.36,9.1,4.42,9.04C4.55,8.91,4.61,8.76,4.6,8.58c-0.01-0.3-0.01-0.6,0-0.9
					C4.61,7.26,4.75,6.87,4.93,6.5c0.02-0.05,0.06-0.09,0.09-0.13c0.11-0.13,0.11-0.12,0.23,0C5.29,6.4,5.32,6.43,5.35,6.46z"/>
				<path class="st1" d="M10.13,7.88c0.03-0.35-0.05-0.72-0.17-1.08c-0.05-0.16-0.13-0.3-0.2-0.45c-0.03-0.07-0.1-0.13-0.11-0.2
					c-0.01-0.1-0.01-0.21,0.04-0.3C9.72,5.79,9.89,5.88,9.96,6c0.21,0.38,0.43,0.76,0.41,1.22c0.16,0.33,0.05,0.69,0.08,1.03
					c0.01,0.12-0.06,0.17-0.14,0.22c-0.08,0.05-0.19-0.02-0.19-0.12C10.12,8.21,10.13,8.06,10.13,7.88z"/>
				<path class="st1" d="M5.7,8.82c-0.1,0.25-0.15,0.5-0.28,0.69c-0.16,0.21-0.32,0.44-0.56,0.58c-0.05,0.03-0.13,0.06-0.18,0.04
					c-0.04-0.01-0.07-0.09-0.09-0.14C4.56,9.95,4.54,9.91,4.55,9.9C4.58,9.85,4.62,9.8,4.67,9.78C5.08,9.58,5.22,9.2,5.35,8.8
					c0.02-0.05,0.1-0.12,0.15-0.12C5.57,8.7,5.63,8.77,5.7,8.82z"/>
				<path class="st1" d="M3.86,7.77c0-0.16-0.01-0.33,0.01-0.49c0.01-0.07,0.06-0.16,0.12-0.19c0.06-0.03,0.16-0.04,0.22,0.05
					c0.03,0.04,0.08,0.11,0.06,0.13C4.1,7.54,4.23,7.83,4.19,8.11C4.18,8.19,4.21,8.28,4.18,8.35C4.17,8.4,4.09,8.48,4.04,8.47
					C3.98,8.46,3.88,8.4,3.87,8.34C3.85,8.15,3.86,7.96,3.86,7.77z"/>
				<path class="st1" d="M8.48,10.41c0,0.08,0.02,0.13,0,0.16c-0.2,0.29-0.26,0.67-0.56,0.91c-0.06,0.05-0.1,0.09-0.17,0.02
					c-0.05-0.05-0.14-0.1-0.07-0.2c0.2-0.29,0.35-0.61,0.52-0.93c0.01-0.02,0.03-0.05,0.06-0.06c0.06-0.01,0.13-0.03,0.19-0.02
					C8.47,10.31,8.47,10.39,8.48,10.41z"/>
				<path class="st1" d="M5.95,9.97c-0.08,0.14-0.12,0.33-0.23,0.39c-0.15,0.08-0.24,0.21-0.36,0.3c-0.1,0.07-0.19,0.08-0.28,0
					c-0.07-0.07-0.11-0.14-0.01-0.2c0.26-0.15,0.45-0.35,0.6-0.6C5.69,9.82,5.79,9.8,5.85,9.81C5.89,9.82,5.91,9.9,5.95,9.97z"/>
			</g>
			<path class="st1" d="M8.97,28.84c0-4.75,0-9.5,0-14.25c0-0.05,0-0.11,0-0.16c-0.01-0.2-0.14-0.34-0.35-0.34
				c-0.43,0-0.86,0-1.28,0v0.7l0.93,1.28v1.46c0.25,0.07,0.43,0.29,0.43,0.56c0,0.45-0.52,0.79-1,0.42
				c-0.32-0.42-0.1-0.88,0.27-0.98v-1.46l-0.89-1.23l-0.89,1.23v1.46c0.37,0.1,0.6,0.56,0.27,0.98c-0.48,0.36-1,0.03-1-0.42
				c0-0.27,0.18-0.49,0.43-0.56v-1.46l0.93-1.28v-0.7c-0.37,0-0.75,0-1.12,0c-0.21,0-0.34,0.14-0.35,0.34c0,0.08,0,0.16,0,0.25
				c0,2.33,0,4.67,0,7c0,2.36,0,4.72,0,7.08c0,0.08,0,0.16,0,0.25c0.01,0.18,0.15,0.32,0.33,0.32c0.38,0,0.76,0,1.14,0V28.1
				l-0.93-1.28v-1.46c-0.25-0.07-0.43-0.29-0.43-0.56c0-0.45,0.52-0.79,1-0.42c0.32,0.42,0.1,0.88-0.27,0.98v1.46l0.89,1.23
				l0.89-1.23v-1.46c-0.37-0.1-0.6-0.56-0.27-0.98c0.48-0.36,1-0.03,1,0.42c0,0.27-0.18,0.49-0.43,0.56v1.46L7.34,28.1v1.24
				c0.44,0,0.87,0,1.31,0c0.09,0,0.14-0.03,0.21-0.08C9,29.14,8.97,28.99,8.97,28.84z M7.65,26.41c0,0.32-0.26,0.58-0.58,0.58
				c-0.32,0-0.58-0.26-0.58-0.58c0-0.27,0.18-0.49,0.43-0.56V17c-0.25-0.07-0.43-0.29-0.43-0.56c0-0.32,0.26-0.58,0.58-0.58
				c0.32,0,0.58,0.26,0.58,0.58c0,0.27-0.18,0.49-0.43,0.56v8.85C7.47,25.92,7.65,26.14,7.65,26.41z"/>
		</g>
	</g>
	<g>
		<path class="st1" d="M46.97,31.27h0.48v3.58h-0.48V31.27z"/>
		<path class="st1" d="M49.98,32.3h0.44v2.45c0,0.38-0.13,0.67-0.38,0.88c-0.26,0.21-0.56,0.31-0.92,0.31
			c-0.29,0-0.53-0.05-0.74-0.16c-0.21-0.11-0.37-0.26-0.47-0.46l0.39-0.22c0.14,0.29,0.42,0.43,0.83,0.43
			c0.27,0,0.48-0.07,0.63-0.21c0.15-0.14,0.23-0.33,0.23-0.57v-0.36c-0.23,0.34-0.55,0.51-0.96,0.51c-0.36,0-0.67-0.13-0.93-0.39
			c-0.25-0.26-0.38-0.57-0.38-0.95c0-0.37,0.13-0.69,0.38-0.94c0.25-0.26,0.56-0.39,0.93-0.39c0.42,0,0.74,0.17,0.96,0.51V32.3z
			 M48.42,34.21c0.17,0.17,0.39,0.26,0.65,0.26c0.26,0,0.48-0.09,0.65-0.26c0.17-0.17,0.26-0.39,0.26-0.65
			c0-0.26-0.09-0.47-0.26-0.64c-0.17-0.17-0.39-0.26-0.65-0.26c-0.26,0-0.48,0.09-0.65,0.26c-0.17,0.17-0.26,0.39-0.26,0.64
			C48.16,33.82,48.25,34.04,48.42,34.21z"/>
		<path class="st1" d="M52.07,32.23c0.3,0,0.54,0.09,0.72,0.28c0.18,0.19,0.27,0.45,0.27,0.77v1.57h-0.45v-1.55
			c0-0.21-0.06-0.37-0.17-0.48c-0.11-0.11-0.27-0.17-0.47-0.17c-0.22,0-0.4,0.07-0.54,0.21c-0.14,0.14-0.2,0.35-0.2,0.64v1.36h-0.45
			V32.3h0.45v0.37C51.42,32.37,51.69,32.23,52.07,32.23z"/>
		<path class="st1" d="M53.6,31.83c-0.09,0-0.16-0.03-0.21-0.09c-0.06-0.06-0.09-0.13-0.09-0.21s0.03-0.15,0.09-0.21
			c0.06-0.06,0.13-0.09,0.21-0.09c0.08,0,0.15,0.03,0.21,0.09c0.06,0.06,0.09,0.13,0.09,0.21s-0.03,0.15-0.09,0.21
			C53.75,31.8,53.68,31.83,53.6,31.83z M53.37,34.85V32.3h0.45v2.56H53.37z"/>
		<path class="st1" d="M55.58,32.73H54.9v1.39c0,0.13,0.02,0.22,0.07,0.27c0.05,0.05,0.13,0.08,0.23,0.08c0.1,0,0.23,0,0.38-0.01
			v0.4c-0.39,0.05-0.67,0.02-0.85-0.09c-0.18-0.11-0.27-0.33-0.27-0.65v-1.39h-0.51V32.3h0.51v-0.58l0.45-0.13v0.72h0.68V32.73z"/>
		<path class="st1" d="M55.99,33.78c0.04,0.23,0.15,0.41,0.31,0.53c0.17,0.13,0.37,0.19,0.61,0.19c0.34,0,0.58-0.12,0.74-0.37
			l0.38,0.21c-0.25,0.39-0.62,0.58-1.13,0.58c-0.41,0-0.74-0.13-0.99-0.38c-0.25-0.25-0.38-0.58-0.38-0.97
			c0-0.39,0.12-0.71,0.37-0.96c0.25-0.26,0.57-0.38,0.97-0.38c0.38,0,0.68,0.13,0.92,0.4c0.24,0.26,0.36,0.58,0.36,0.95
			c0,0.06-0.01,0.13-0.02,0.2H55.99z M56.87,32.65c-0.24,0-0.44,0.07-0.59,0.2c-0.16,0.13-0.25,0.31-0.29,0.54h1.71
			c-0.04-0.24-0.13-0.43-0.29-0.55C57.26,32.71,57.08,32.65,56.87,32.65z"/>
		<path class="st1" d="M59.55,31.83c-0.09,0-0.16-0.03-0.21-0.09c-0.06-0.06-0.09-0.13-0.09-0.21s0.03-0.15,0.09-0.21
			c0.06-0.06,0.13-0.09,0.21-0.09c0.08,0,0.15,0.03,0.21,0.09c0.06,0.06,0.09,0.13,0.09,0.21s-0.03,0.15-0.09,0.21
			C59.7,31.8,59.63,31.83,59.55,31.83z M59.32,34.85V32.3h0.45v2.56H59.32z"/>
		<path class="st1" d="M61.53,32.73h-0.68v1.39c0,0.13,0.02,0.22,0.07,0.27c0.05,0.05,0.13,0.08,0.23,0.08c0.1,0,0.23,0,0.38-0.01
			v0.4c-0.39,0.05-0.67,0.02-0.85-0.09c-0.18-0.11-0.27-0.33-0.27-0.65v-1.39H59.9V32.3h0.51v-0.58l0.45-0.13v0.72h0.68V32.73z"/>
		<path class="st1" d="M63.13,32.98c0,0.1,0.05,0.17,0.15,0.23c0.1,0.06,0.22,0.11,0.36,0.15c0.14,0.04,0.28,0.08,0.42,0.12
			c0.14,0.04,0.26,0.12,0.36,0.23c0.1,0.11,0.15,0.26,0.15,0.44c0,0.23-0.09,0.42-0.27,0.56c-0.18,0.14-0.41,0.21-0.69,0.21
			c-0.25,0-0.46-0.05-0.64-0.16c-0.18-0.11-0.3-0.25-0.38-0.44l0.38-0.22c0.04,0.12,0.12,0.22,0.23,0.29
			c0.11,0.07,0.25,0.11,0.4,0.11c0.15,0,0.27-0.03,0.36-0.08c0.1-0.06,0.14-0.14,0.14-0.26c0-0.1-0.05-0.18-0.15-0.24
			c-0.1-0.06-0.22-0.11-0.36-0.15c-0.14-0.04-0.28-0.08-0.42-0.13c-0.14-0.04-0.26-0.12-0.36-0.23c-0.1-0.11-0.15-0.25-0.15-0.42
			c0-0.22,0.09-0.4,0.26-0.55c0.17-0.14,0.39-0.21,0.65-0.21c0.21,0,0.39,0.05,0.56,0.14c0.16,0.09,0.28,0.22,0.37,0.39l-0.37,0.21
			c-0.09-0.22-0.27-0.33-0.55-0.33c-0.13,0-0.23,0.03-0.32,0.09C63.17,32.79,63.13,32.87,63.13,32.98z"/>
		<path class="st1" d="M66.87,34.53c-0.26,0.26-0.58,0.39-0.96,0.39c-0.38,0-0.69-0.13-0.95-0.39c-0.26-0.26-0.39-0.58-0.39-0.96
			c0-0.38,0.13-0.7,0.39-0.96c0.26-0.26,0.58-0.39,0.95-0.39c0.38,0,0.69,0.13,0.96,0.39c0.26,0.26,0.39,0.58,0.39,0.96
			C67.26,33.95,67.13,34.27,66.87,34.53z M65.91,34.49c0.26,0,0.47-0.09,0.64-0.26c0.17-0.17,0.26-0.39,0.26-0.65
			c0-0.26-0.09-0.48-0.26-0.65c-0.17-0.17-0.39-0.26-0.64-0.26c-0.25,0-0.47,0.09-0.64,0.26c-0.17,0.17-0.26,0.39-0.26,0.65
			c0,0.26,0.09,0.48,0.26,0.65C65.44,34.4,65.66,34.49,65.91,34.49z"/>
		<path class="st1" d="M67.48,34.85v-3.74h0.45v3.74H67.48z"/>
		<path class="st1" d="M70.07,32.3h0.45v2.56h-0.45v-0.37c-0.18,0.29-0.46,0.44-0.83,0.44c-0.3,0-0.54-0.09-0.72-0.28
			c-0.18-0.19-0.27-0.45-0.27-0.77V32.3h0.45v1.55c0,0.21,0.06,0.37,0.17,0.48c0.11,0.11,0.27,0.17,0.47,0.17
			c0.22,0,0.4-0.07,0.54-0.21c0.14-0.14,0.2-0.35,0.2-0.64V32.3z"/>
		<path class="st1" d="M72.27,32.73h-0.68v1.39c0,0.13,0.02,0.22,0.07,0.27c0.05,0.05,0.13,0.08,0.23,0.08c0.1,0,0.23,0,0.38-0.01
			v0.4c-0.39,0.05-0.67,0.02-0.85-0.09c-0.18-0.11-0.27-0.33-0.27-0.65v-1.39h-0.51V32.3h0.51v-0.58l0.45-0.13v0.72h0.68V32.73z"/>
		<path class="st1" d="M72.72,31.83c-0.09,0-0.16-0.03-0.21-0.09c-0.06-0.06-0.09-0.13-0.09-0.21s0.03-0.15,0.09-0.21
			c0.06-0.06,0.13-0.09,0.21-0.09c0.08,0,0.15,0.03,0.21,0.09c0.06,0.06,0.09,0.13,0.09,0.21s-0.03,0.15-0.09,0.21
			C72.87,31.8,72.8,31.83,72.72,31.83z M72.49,34.85V32.3h0.45v2.56H72.49z"/>
		<path class="st1" d="M75.47,34.53c-0.26,0.26-0.58,0.39-0.96,0.39c-0.38,0-0.69-0.13-0.95-0.39c-0.26-0.26-0.39-0.58-0.39-0.96
			c0-0.38,0.13-0.7,0.39-0.96c0.26-0.26,0.58-0.39,0.95-0.39c0.38,0,0.69,0.13,0.96,0.39c0.26,0.26,0.39,0.58,0.39,0.96
			C75.86,33.95,75.73,34.27,75.47,34.53z M74.51,34.49c0.26,0,0.47-0.09,0.64-0.26c0.17-0.17,0.26-0.39,0.26-0.65
			c0-0.26-0.09-0.48-0.26-0.65c-0.17-0.17-0.39-0.26-0.64-0.26c-0.25,0-0.47,0.09-0.64,0.26c-0.17,0.17-0.26,0.39-0.26,0.65
			c0,0.26,0.09,0.48,0.26,0.65C74.05,34.4,74.26,34.49,74.51,34.49z"/>
		<path class="st1" d="M77.36,32.23c0.3,0,0.54,0.09,0.72,0.28c0.18,0.19,0.27,0.45,0.27,0.77v1.57h-0.45v-1.55
			c0-0.21-0.06-0.37-0.17-0.48c-0.11-0.11-0.27-0.17-0.47-0.17c-0.22,0-0.4,0.07-0.54,0.21c-0.14,0.14-0.2,0.35-0.2,0.64v1.36h-0.45
			V32.3h0.45v0.37C76.71,32.37,76.99,32.23,77.36,32.23z"/>
		<path class="st1" d="M79.05,32.98c0,0.1,0.05,0.17,0.15,0.23c0.1,0.06,0.22,0.11,0.36,0.15c0.14,0.04,0.28,0.08,0.42,0.12
			c0.14,0.04,0.26,0.12,0.36,0.23c0.1,0.11,0.15,0.26,0.15,0.44c0,0.23-0.09,0.42-0.27,0.56c-0.18,0.14-0.41,0.21-0.69,0.21
			c-0.25,0-0.46-0.05-0.64-0.16c-0.18-0.11-0.3-0.25-0.38-0.44l0.38-0.22c0.04,0.12,0.12,0.22,0.23,0.29s0.25,0.11,0.4,0.11
			c0.15,0,0.27-0.03,0.36-0.08c0.1-0.06,0.14-0.14,0.14-0.26c0-0.1-0.05-0.18-0.15-0.24c-0.1-0.06-0.22-0.11-0.36-0.15
			c-0.14-0.04-0.28-0.08-0.42-0.13c-0.14-0.04-0.26-0.12-0.36-0.23c-0.1-0.11-0.15-0.25-0.15-0.42c0-0.22,0.09-0.4,0.26-0.55
			c0.17-0.14,0.39-0.21,0.65-0.21c0.21,0,0.39,0.05,0.56,0.14c0.16,0.09,0.28,0.22,0.37,0.39l-0.37,0.21
			c-0.09-0.22-0.27-0.33-0.55-0.33c-0.13,0-0.23,0.03-0.32,0.09C79.09,32.79,79.05,32.87,79.05,32.98z"/>
	</g>
</g>
</svg>
