<svg xmlns="http://www.w3.org/2000/svg" xmlns:xlink="http://www.w3.org/1999/xlink" width="242.04" height="85.374" viewBox="0 0 242.04 85.374">
  <defs>
    <clipPath id="clip-path">
      <path id="Объединение_4" data-name="Объединение 4" d="M171.77,85.318C98.584,84.577,34.894,66.662,0,40.2V18.86L71.448,0c20.769,15.747,58.675,26.408,102.236,26.85.933.015,1.862.044,2.805.044a261.165,261.165,0,0,0,39.019-2.882l26.532,35.2V80.554a441.1,441.1,0,0,1-65.551,4.82C174.9,85.374,173.346,85.337,171.77,85.318ZM240.6,59.428a5.619,5.619,0,0,0,1.443-.215Z" transform="translate(834 530)" fill="#00577b" stroke="rgba(0,0,0,0)" stroke-miterlimit="10" stroke-width="1"/>
    </clipPath>
  </defs>
  <g id="Группа_масок_8" data-name="Группа масок 8" transform="translate(-834 -530)" clip-path="url(#clip-path)">
    <g id="Сгруппировать_43" data-name="Сгруппировать 43" transform="translate(-0.389 -0.478)">
      <path id="Контур_72" data-name="Контур 72" d="M-407.034,487.819a261.527,261.527,0,0,1-39.019,2.881c-.943,0-1.872-.029-2.8-.045-.641,0-1.28-.02-1.914-.036-42.751-.72-79.858-11.293-100.322-26.815-10.362-7.856-16.373-7.112-16.77-16.852l-54.678,14.378v21.337c34.894,26.465,98.584,44.38,171.77,45.121,1.576.019,3.134.056,4.719.056a441.114,441.114,0,0,0,65.551-4.82V501.683C-388.73,504.038-397.623,486.394-407.034,487.819Z" transform="translate(1456.931 88.008)" fill="#ae7e00"/>
      <path id="Контур_77" data-name="Контур 77" d="M-407.034,466.482a261.126,261.126,0,0,1-39.019,2.882c-.943,0-1.872-.029-2.8-.044-43.561-.442-81.466-11.1-102.236-26.85l-71.448,18.86c34.894,26.465,98.584,44.381,171.77,45.125,1.576.012,3.134.054,4.719.054a439.893,439.893,0,0,0,65.551-4.826Z" transform="translate(1456.931 88.008)" fill="#fcae28"/>
    </g>
  </g>
</svg>
